<svg width="50" height="47" viewBox="0 0 50 47" fill="none" xmlns="http://www.w3.org/2000/svg">
<path d="M25 0C20.0555 0 15.222 1.37825 11.1108 3.96046C6.99952 6.54268 3.79521 10.2129 1.90302 14.5069C0.0108321 18.801 -0.484251 23.5261 0.480379 28.0846C1.44501 32.6432 3.82603 36.8305 7.32234 40.117C10.8187 43.4035 15.2732 45.6417 20.1227 46.5484C24.9723 47.4552 29.9989 46.9898 34.5671 45.2112C39.1352 43.4325 43.0397 40.4204 45.7867 36.5559C48.5338 32.6913 50 28.1479 50 23.5C49.993 17.2694 47.3568 11.2959 42.6699 6.89026C37.983 2.48458 31.6283 0.00657959 25 0ZM25 37.9615C24.4295 37.9615 23.8718 37.8025 23.3974 37.5046C22.923 37.2066 22.5533 36.7831 22.335 36.2877C22.1166 35.7922 22.0595 35.247 22.1708 34.721C22.2821 34.195 22.5569 33.7119 22.9603 33.3326C23.3637 32.9534 23.8777 32.6952 24.4372 32.5906C24.9968 32.4859 25.5768 32.5396 26.1039 32.7449C26.631 32.9501 27.0815 33.2976 27.3985 33.7435C27.7154 34.1895 27.8846 34.7137 27.8846 35.25C27.8846 35.9691 27.5807 36.6588 27.0397 37.1673C26.4988 37.6758 25.7651 37.9615 25 37.9615ZM26.9231 26.9527V27.1154C26.9231 27.5948 26.7205 28.0546 26.3598 28.3936C25.9992 28.7326 25.51 28.9231 25 28.9231C24.49 28.9231 24.0008 28.7326 23.6402 28.3936C23.2795 28.0546 23.0769 27.5948 23.0769 27.1154V25.3077C23.0769 24.8283 23.2795 24.3685 23.6402 24.0295C24.0008 23.6904 24.49 23.5 25 23.5C28.1803 23.5 30.7692 21.4663 30.7692 18.9808C30.7692 16.4952 28.1803 14.4615 25 14.4615C21.8197 14.4615 19.2308 16.4952 19.2308 18.9808V19.8846C19.2308 20.364 19.0282 20.8238 18.6675 21.1628C18.3069 21.5019 17.8177 21.6923 17.3077 21.6923C16.7977 21.6923 16.3085 21.5019 15.9479 21.1628C15.5872 20.8238 15.3846 20.364 15.3846 19.8846V18.9808C15.3846 14.4954 19.6971 10.8462 25 10.8462C30.3029 10.8462 34.6154 14.4954 34.6154 18.9808C34.6154 22.908 31.3077 26.1957 26.9231 26.9527Z" fill="#DBE9D8"/>
</svg>
