<svg width="41" height="41" viewBox="0 0 41 41" fill="none" xmlns="http://www.w3.org/2000/svg">
<path d="M30.2633 3C26.8049 3 23.0805 3.88916 20.5089 6.33433C17.9372 3.88916 14.2128 3 10.7544 3C8.18281 3 5.45157 3.48904 3.16371 4.75608C1.86903 5.48964 1 7.06789 1 8.86843V33.9426C1 36.8324 3.16371 38.9664 5.39836 38.255C7.13643 37.6993 8.9809 37.4548 10.7544 37.4548C13.5211 37.4548 16.4652 38.0327 18.8417 39.4998C19.9059 40.1667 21.1119 40.1667 22.1583 39.4998C24.5348 38.0105 27.4789 37.4548 30.2456 37.4548C32.0191 37.4548 33.8636 37.6993 35.6016 38.255C37.8363 38.9886 40 36.8546 40 33.9426V8.86843C40 7.06789 39.131 5.48964 37.8363 4.75608C35.5662 3.48904 32.8349 3 30.2633 3ZM36.4707 31.2974C36.4707 32.6978 35.442 33.7203 34.3424 33.4758C33.0123 33.1646 31.6289 33.0312 30.2633 33.0312C27.2483 33.0312 22.9031 34.4761 20.5089 36.3656V10.7801C22.9031 8.89066 27.2483 7.44578 30.2633 7.44578C31.895 7.44578 33.5089 7.64584 35.0518 8.06819C35.8677 8.29048 36.4707 9.20186 36.4707 10.2466V31.2974Z" fill="#DBE9D8"/>
<path d="M23.8826 18.8087C23.336 18.8087 22.8405 18.467 22.6697 17.9203C22.4476 17.2541 22.8235 16.5195 23.4897 16.3145C26.1205 15.4603 29.5201 15.187 32.6464 15.5457C33.3468 15.6312 33.8593 16.2632 33.7739 16.9637C33.6885 17.6641 33.0564 18.1766 32.356 18.0912C29.5885 17.7666 26.5647 18.0228 24.2755 18.7574C24.1389 18.7745 24.0022 18.8087 23.8826 18.8087ZM23.8826 23.3528C23.336 23.3528 22.8405 23.0112 22.6697 22.4645C22.4476 21.7982 22.8235 21.0637 23.4897 20.8587C26.1035 20.0045 29.5201 19.7312 32.6464 20.0899C33.3468 20.1753 33.8593 20.8074 33.7739 21.5078C33.6885 22.2082 33.0564 22.7207 32.356 22.6353C29.5885 22.3107 26.5647 22.567 24.2755 23.3016C24.147 23.3338 24.0151 23.351 23.8826 23.3528ZM23.8826 27.897C23.336 27.897 22.8405 27.5553 22.6697 27.0087C22.4476 26.3424 22.8235 25.6078 23.4897 25.4028C26.1035 24.5487 29.5201 24.2753 32.6464 24.6341C33.3468 24.7195 33.8593 25.3516 33.7739 26.052C33.6885 26.7524 33.0564 27.2478 32.356 27.1795C29.5885 26.8549 26.5647 27.1112 24.2755 27.8457C24.147 27.878 24.0151 27.8952 23.8826 27.897Z" fill="#DBE9D8"/>
</svg>
