<svg width="210" height="242" viewBox="0 0 210 242" fill="none" xmlns="http://www.w3.org/2000/svg">
<path d="M113.02 0.877197H121.183L129.02 1.36988L134.734 2.02679L141.102 3.01216L145.836 3.99753L150.571 5.31135L158.245 7.939L163.796 10.074L168.204 12.2089L171.143 14.1797L173.265 15.9862L174.571 17.4642L176.041 19.7634L177.184 22.5553L177.673 24.526L178 27.8106L178.163 30.274L178 33.3943L177.347 37.3358L176.204 41.4415L174.408 46.6968L172.122 51.4594L169.837 55.5651L167.551 58.8497L166.245 60.492L164.285 62.6269L162.816 64.105L161.02 65.583L158.408 67.5538L155.796 69.3603L154 70.5099L151.877 72.3164L149.755 73.9587L147.469 75.2725L143.551 76.5863L139.143 77.5717L135.551 78.0644L133.428 78.2286H115.959L102.408 78.0644H93.1015L87.5504 78.2286L84.4484 78.5571L82.4892 79.0497L80.8565 79.7066L79.0606 81.1847L78.8973 81.5132H78.5708L78.2443 82.1701L76.7749 83.8123L74.8157 86.6042L73.3463 89.0676L72.0401 91.6953L70.734 94.8156L69.5912 98.2644L68.9381 101.549L68.6116 105.49L68.4483 110.582V151.146L68.6116 167.733V234.245L68.4483 240.322L68.1218 241.307L66.8156 241.8L64.3666 241.964H4.93779L2.65206 241.8L1.5092 241.471L1.18267 240.157L0.856137 233.917L0.692871 215.031V133.409L0.856137 126.347L1.0194 112.716L1.34594 104.998L1.999 98.2644L2.9786 92.3522L4.77452 83.4839L5.91739 78.8855L7.38678 73.7944L9.34597 67.8822L10.9786 63.9408L12.9378 59.5066L14.244 56.879L16.2031 53.2659L19.1419 48.8318L21.7542 45.383L23.5501 43.0838L25.6726 40.4562L27.4685 38.157L28.7746 36.5147L30.5706 34.3797L33.0196 31.9163L34.3257 30.7667L36.1216 29.2886L38.2441 27.4821L40.5298 25.5114L42.3257 24.0333L44.6114 22.0626L46.7339 20.4203L49.1829 18.7781L53.2645 16.3146L57.3462 14.0154L60.1217 12.5374L63.7136 10.8951L67.7952 9.25283L72.6932 7.44632L80.8565 4.81867L86.081 3.66907L96.2035 2.19102L101.918 1.53411L106.326 1.20565L113.02 0.877197Z" fill="#628A42"/>
<path d="M185.51 31.9163L186.163 32.0805L187.796 33.2301L189.592 34.7082L191.877 37.0074L193.02 38.3212L194.816 40.4562L196.775 43.2481L199.388 47.6822L201.184 51.2952L202.979 55.7294L204.122 59.5066L205.755 66.0757L206.571 71.1668L207.061 76.2579L207.224 80.3636V82.6628L206.898 89.0677L206.408 93.1734L205.428 98.2644L204.286 103.356L202.979 107.625L200.857 112.881L197.592 119.45L195.633 122.57L193.347 125.691L191.061 128.482L189.592 130.125L187.306 132.588L184.041 135.873L182.734 137.022L180.449 138.993L178.326 140.471L175.714 141.785L172.939 143.263L172.122 144.084L171.632 146.876L170.816 155.252L169.836 167.076L169.673 167.897H177.183L181.428 168.061L186.326 168.554L190.408 169.539L193.673 170.853L195.796 172.167L197.428 173.645L198.898 175.287L200.204 177.422L201.02 179.229L201.51 181.528L201.673 182.678L201.837 185.47V195.323L201.673 201.4L201.184 206.326L200.367 210.104L198.245 216.344L196.939 218.972L194.653 222.421L192.857 224.72L191.061 226.855L189.918 228.169L187.959 230.304L186.49 231.782L184.694 233.26L182.408 235.066L180.285 236.38L177.837 237.694L174.734 239.008L169.836 240.65L166.898 241.307L163.796 241.635L160.53 241.8H124.448L123.306 241.471L123.142 241.307L122.979 239.501V222.421L120.693 222.585H109.918L105.836 222.257L103.714 221.6L102.734 220.943L101.591 219.136L101.265 217.494L100.775 210.432L100.612 206.162L100.448 196.473V179.229L100.612 173.317L100.285 171.674L99.632 170.196L98.6524 168.882L97.3463 167.897L95.3871 167.076L93.7545 166.748H89.8361L87.8769 167.24L86.4075 168.061L85.5912 168.882L84.4483 170.525L83.7952 172.495L83.632 173.317L83.4687 175.944V198.444L83.7952 201.892L84.4483 204.848L85.4279 207.476L86.5708 209.283L87.8769 210.432L90.4891 211.91L93.4279 213.06L94.7341 213.881L95.3871 214.866L95.5504 216.837L95.0606 219.3L94.2443 220.614L93.2647 220.943L91.9585 221.107L88.8565 220.614L86.5708 219.957L83.632 218.644L81.5095 217.166L79.5503 215.359L77.9177 213.06L76.4483 210.268L75.3054 207.476L74.4891 204.027L74.1625 198.772L73.9993 190.889V175.123L74.1625 172.331L74.6523 170.196L75.7952 167.404L77.7544 164.12L80.0401 161.656L81.9993 160.014L84.1218 158.536L84.7748 157.715L84.6116 154.266L83.4687 142.77L82.8156 135.873L82.4891 129.139L81.3462 128.647L80.0401 128.154L79.2238 127.333L79.0605 126.84L78.8973 124.048L79.2238 121.256L80.0401 119.286L81.183 118.3L82.9789 117.479L83.9585 117.315L91.1422 116.986L91.9585 116.494L93.5912 113.373L94.7341 112.06L96.3667 111.074L101.101 109.432L102.244 109.268H105.183L106.326 108.939L106.652 108.118L107.795 105.49L108.938 103.52L110.244 102.042L112.693 100.399L115.795 99.2498L126.081 95.801L130.653 93.9945L133.591 92.8449L139.142 90.3815L141.428 89.2319L144.367 87.9181L147.142 86.44L149.755 84.7977L152.53 83.1555L154.326 82.0059L158.245 79.3782L164.122 75.1083L166.408 73.1376L168.204 71.4953L169.347 70.1814L171.143 68.0465L173.102 65.4188L174.734 63.2839L176.694 60.492L178.326 58.0286L179.632 55.4009L181.428 51.131L183.061 46.5326L184.041 42.5911L184.694 38.4854L185.02 34.2155V33.0659L185.51 31.9163ZM124.775 102.863L122 103.356L118.571 104.505L115.469 106.147L113.51 107.461L111.714 108.939L110.734 110.582L110.244 111.731L110.408 113.702L111.061 114.359L112.693 115.016L114.816 114.523L115.632 113.702L116.775 112.06L118.897 109.925L121.346 109.103L123.632 108.775H127.061L130.653 109.268L132.612 109.925L134.408 110.91L135.551 112.06L136.367 112.716L137.347 114.03L138.816 115.016L139.469 115.18L141.428 114.687L142.244 114.03L142.571 113.045V111.731L141.265 109.103L139.469 107.297L136.53 105.326L133.428 103.848L130.326 103.027L129.346 102.863H124.775Z" fill="#0380A9"/>
<path d="M73.5095 78.5571H80.6932L81.0197 78.8855L80.8565 79.7067L79.0605 81.1847L78.8973 81.5132H78.5707L78.2442 82.1701L76.7748 83.8124L74.8156 86.6042L73.3462 89.0677L72.0401 91.6953L70.734 94.8156L69.5911 98.2644L68.938 101.549L68.6115 105.49L68.4482 110.582V151.146L68.6115 167.733V234.245L68.4482 240.322L68.1217 241.307L66.8156 241.8L64.3666 241.964H4.93774L2.65201 241.8L1.50915 241.471L1.34588 241.143L1.18262 233.917V200.907L1.50915 122.57L1.83568 121.092L2.65201 119.943L3.30508 119.286L5.42754 115.508L7.38673 112.388L9.34592 109.596L10.9786 107.297L12.7745 104.998L14.897 102.534L18.9786 98.4287L20.2847 97.2791L22.897 95.1441L26.1623 92.6807L29.1011 90.7099L33.1828 88.2465L38.5705 85.4546L41.6726 84.1408L47.5502 82.1701L52.2849 81.0205L57.0196 80.0351L63.0605 79.214L69.2646 78.7213L73.5095 78.5571Z" fill="#037FA9"/>
<path d="M169.347 167.733L177.184 167.897L181.429 168.061L186.326 168.554L190.408 169.539L193.673 170.853L195.796 172.167L197.429 173.645L198.898 175.287L200.204 177.422L201.02 179.229L201.51 181.528L201.674 182.678L201.837 185.47V195.323L201.674 201.4L201.184 206.326L200.367 210.104L198.245 216.344L196.939 218.972L194.653 222.421L192.857 224.72L191.061 226.855L189.918 228.169L187.959 230.304L186.49 231.782L184.694 233.26L182.408 235.066L180.286 236.38L177.837 237.694L174.735 239.008L169.837 240.65L166.898 241.307L163.796 241.635L160.53 241.8H124.449L123.306 241.471L123.143 241.307L122.979 239.501V222.421L120.53 222.257V222.092L122.653 221.764L122.816 221.271L122.979 211.253L123.143 206.983L123.796 200.414L124.612 196.144L125.755 192.203L127.224 188.918L129.02 185.798L130.326 183.991L132.122 181.364L133.592 179.557L135.877 177.258L138.163 175.452L140.612 173.809L143.224 172.495L145.673 171.51L146.979 171.017L150.081 170.032L154.326 169.047L159.714 168.39L164.612 168.061L168.694 167.897L169.347 167.733Z" fill="#044C40"/>
<path d="M73.5096 78.5571H80.6933L81.0199 78.8855L80.8566 79.7067L79.0607 81.1847L78.8974 81.5132H78.5709L78.2443 82.1701L76.7749 83.8124L74.8157 86.6042L73.3464 89.0677L72.0402 91.6953L70.7341 94.8156L69.5912 98.2644L68.9382 101.549L68.6116 105.49L68.4484 110.582L68.2851 111.074L68.1218 151.639L67.9586 154.43L67.3055 153.938L59.1422 153.773H7.55012L2.81541 153.938L1.99908 154.102L1.83581 154.595L1.67254 157.715H1.50928V122.57L1.83581 121.092L2.65214 119.943L3.3052 119.286L5.42766 115.508L7.38686 112.388L9.34605 109.596L10.9787 107.297L12.7746 104.998L14.8971 102.534L18.9787 98.4287L20.2849 97.2791L22.8971 95.1441L26.1625 92.6807L29.1012 90.7099L33.1829 88.2465L38.5707 85.4546L41.6727 84.1408L47.5503 82.1701L52.285 81.0205L57.0197 80.0351L63.0606 79.214L69.2647 78.7213L73.5096 78.5571Z" fill="#054C4E"/>
<path d="M185.51 31.9163L186.163 32.0805L187.796 33.2301L189.592 34.7082L191.877 37.0074L193.02 38.3212L194.816 40.4562L196.775 43.2481L199.388 47.6822L201.184 51.2952L202.979 55.7294L204.122 59.5066L205.755 66.0757L206.571 71.1668L207.061 76.2579L207.224 80.3636V82.6628L206.898 89.0677L206.408 93.1734L205.428 98.2644L204.286 103.356L202.979 107.625L200.857 112.881L197.592 119.45L195.632 122.57L193.347 125.691L191.061 128.482L189.592 130.125L187.306 132.588L184.041 135.873L182.734 137.022L180.449 138.993L178.326 140.471L175.714 141.785L172.938 143.263L172.122 144.084L171.632 146.876L170.816 155.252L169.836 167.076H169.673V163.463L170.163 156.401L170.816 151.146L171.306 145.891L171.959 143.591L172.285 142.113L173.265 133.245L173.755 130.617L174.081 129.304L174.898 127.004L175.387 124.705V120.271L175.061 119.45L174.081 119.121L172.285 118.3L168.204 117.315L165.102 116.494L162.489 115.18L160.694 114.03L159.224 113.045L157.102 112.06L153.673 110.91L149.428 109.925L145.02 109.268H142.408L142.081 109.432L142.244 110.417L142.571 111.074L142.408 111.731L141.102 109.103L139.469 107.461L136.53 105.49L133.428 104.012L130.326 103.191L129.346 103.027H124.775L121.999 103.52L118.571 104.669L115.469 106.312L113.51 107.625L111.877 108.939L111.387 109.432L110.571 108.775H107.142L106.326 108.939L106.652 108.118L107.795 105.49L108.938 103.52L110.244 102.042L112.693 100.399L115.795 99.2498L126.081 95.801L130.653 93.9945L133.591 92.8449L139.142 90.3815L141.428 89.2319L144.367 87.9181L147.142 86.44L149.755 84.7977L152.53 83.1555L154.326 82.0059L158.245 79.3782L164.122 75.1083L166.408 73.1376L168.204 71.4953L169.347 70.1814L171.143 68.0465L173.102 65.4188L174.734 63.2839L176.694 60.492L178.326 58.0286L179.632 55.4009L181.428 51.131L183.061 46.5326L184.041 42.5911L184.694 38.4854L185.02 34.2155V33.0659L185.51 31.9163Z" fill="#754427"/>
<path d="M113.02 0.877197H121.183L129.02 1.36988L134.734 2.02679L141.102 3.01216L145.836 3.99753L150.571 5.31135L158.245 7.939L163.796 10.074L168.204 12.2089L171.143 14.1797L173.265 15.9862L174.571 17.4642L176.041 19.7634L177.184 22.5553L177.673 24.526L178 27.8106L178.163 30.274L178 33.3943L177.347 37.3358L176.204 41.4415L174.408 46.6968L172.122 51.4594L169.837 55.5651L167.551 58.8497L166.245 60.492L164.286 62.6269L162.816 64.105L161.02 65.583L158.408 67.5538L155.796 69.3603L154 70.5099L151.877 72.3164L150.408 73.466V72.9733L151.224 72.3164L151.877 70.8383L152.204 70.0172L152.694 66.8969L152.857 65.0904V60.492L152.367 55.7294L151.551 51.6237L150.408 47.518L148.938 43.5765L146.653 38.8139L144.53 35.2009L142.898 32.7374L141.428 30.7667L139.469 28.4675L138 26.8252L136.04 24.6903L132.938 21.5699L129.347 18.6138L126.898 16.8073L124.938 15.4935L122.653 14.0154L119.714 12.3732L117.428 11.2236L113.673 9.58128L107.632 7.61055L100.938 5.80404L96.8566 4.49021L94.5709 3.8333L93.428 3.66907L91.7954 3.34062H89.1831V3.17639L100.122 1.69834L106.326 1.20565L113.02 0.877197Z" fill="#ACB95B"/>
<path d="M107.142 108.611H110.571L111.387 109.268L111.061 110.253L110.408 111.731L110.571 113.702L111.061 114.195L112.693 114.852L114.816 114.359L115.306 114.195L115.632 113.538L116.612 112.06L118.897 109.76L121.346 108.939L123.632 108.611H127.061L130.653 109.104L132.612 109.76L134.408 110.746L135.551 111.895L136.53 112.717L137.346 113.866L138.816 114.852L139.469 115.016L141.428 114.523L142.081 114.03L142.408 113.045V111.074L141.918 109.925L142.081 109.268L142.408 109.104H145.02L149.428 109.76L154.163 110.91L157.591 112.06L160.367 113.538L161.673 114.523L163.632 115.673L165.755 116.494L168.857 117.315L172.285 118.136L175.061 119.45L175.551 120.271V124.705L174.734 128.154L174.081 129.632L173.592 131.931L172.938 137.843L172.285 143.099L171.959 143.591L172.449 134.395V129.632L169.673 129.139L165.918 128.975H105.51L89.183 128.647L84.1217 128.482L82.9789 129.139L82.8156 129.632L81.9993 128.811L80.2033 128.318L79.387 127.661L79.0605 126.84L78.8972 124.048L79.2237 121.256L80.0401 119.286L81.1829 118.3L82.9789 117.479L83.9585 117.315L91.1422 116.986L91.9585 116.494L93.5912 113.373L94.734 112.06L96.3667 111.074L101.101 109.432L102.244 109.268H105.183L107.142 108.611Z" fill="#054C40"/>
<path d="M88.8565 157.387H93.5912L96.6933 157.879L98.979 158.536L101.265 159.686L103.55 161.328L105.999 163.791L107.306 165.598L108.612 167.897L109.591 170.361L110.244 172.66L110.571 174.466L110.897 179.065L110.571 179.393L108.612 179.722L102.897 180.05L101.101 180.214L100.775 180.378L100.612 173.317L100.285 171.674L99.632 170.196L98.6524 168.882L97.3463 167.897L95.3871 167.076L93.7545 166.748H89.8361L87.8769 167.24L86.4075 168.061L85.5912 168.882L84.4483 170.525L83.7952 172.496L83.632 173.317L83.4687 175.944V198.444L83.7952 201.892L84.4483 204.848L85.4279 207.476L86.5708 209.283L87.8769 210.432L90.4891 211.91L93.4279 213.06L94.7341 213.881L95.3871 214.866L95.5504 216.837L95.0606 219.3L94.2443 220.614L93.2647 220.943L91.9585 221.107L88.8565 220.614L86.5708 219.957L83.632 218.644L81.5095 217.166L79.5503 215.359L77.9177 213.06L76.4483 210.268L75.3054 207.476L74.4891 204.027L74.1625 198.772L73.9993 190.889V175.123L74.1625 172.331L74.6523 170.196L75.7952 167.404L77.7544 164.12L80.0401 161.656L81.9993 160.014L84.1218 158.536L85.1014 157.715H86.4075L88.8565 157.387Z" fill="#094F41"/>
<path d="M88.8566 157.387H93.5913L96.6933 157.879L98.9791 158.536L101.265 159.686L103.551 161.328L106 163.791L107.306 165.598L108.612 167.897L109.591 170.361L110.244 172.66L110.571 174.466L110.897 179.065L110.571 179.393L108.612 179.722L102.897 180.05L101.102 180.214L100.775 180.378L100.612 173.317L100.285 171.674L99.6321 170.196L98.6525 168.882L97.3464 167.897L95.3872 167.076L92.6117 166.583L90.4892 166.419L88.8566 165.762L88.6933 166.091L88.3668 165.762L89.3464 165.434L89.8362 165.598L89.9994 165.105H90.4892V164.777H90.8158L90.979 163.627L90.1627 163.463L89.8362 162.97V162.478L90.979 162.313L90.6525 161.985H89.3464L88.53 161L88.2035 161.164L87.0606 161.492L86.8974 162.313L85.5912 162.149L84.7749 161.492L83.3055 161.821L82.8157 162.313L81.8361 162.478L81.6729 162.806L80.8565 163.135L80.3667 163.299L79.8769 163.791L79.3871 163.956L78.8973 163.299L78.5708 163.463L78.8973 162.806L80.3667 161.328L82.4892 159.686L84.2851 158.372L85.2647 157.715L87.3872 157.551L88.8566 157.387Z" fill="#044C40"/>
<path d="M185.51 31.9163L186.163 32.0805L187.796 33.2301L189.592 34.7082L191.878 37.0074L193.02 38.3212L194.816 40.4562L196.775 43.2481L199.388 47.6822L201.184 51.2952L202.98 55.7294L204.122 59.5066L205.592 65.4188V65.7473H205.265L204.939 64.9262L205.102 64.5977H204.776V64.105H204.449L203.959 62.9554L203.633 62.1343V61.3131L203.469 60.6562H203.143L202.653 59.3424L202.163 58.1928L201.51 56.5505L200.857 55.0725L200.694 54.4156H200.367L199.878 52.9375L198.082 49.3245L196.122 46.0399L195.633 45.383V45.0546L194.98 44.7261L193.673 43.5765L193.184 42.9196L192.204 43.0838L191.714 42.9196V42.5911L189.592 42.9196L188.939 44.2334L188.286 43.905V43.5765H187.306L187.469 44.5619L186 45.5472L185.51 46.3684H185.184V46.8611L184.857 47.1895H184.367L184.204 48.1749L184.041 48.5034H183.714L184.041 50.3099L183.714 51.131L183.551 52.4448L182.898 53.266L182.408 54.4156L181.428 56.2221L180.775 57.0432L180.122 58.357L179.469 59.0139L178.49 60.492L177.347 61.4774L176.53 61.6416L175.714 62.7912V63.9408H175.388L175.224 64.4335H174.735L173.265 66.4042H172.939L172.612 67.0611L172.122 67.5538L171.469 68.7034L170.979 68.8676L170.816 69.5245L170 70.1814L169.51 71.331L169.347 71.6595L168.204 72.3164L168.041 73.1376L167.714 73.466L167.388 74.1229L166.245 74.2872L165.918 74.7798H165.592L165.755 75.7652L165.265 76.2579H164.612V76.5863L163.306 77.7359L162.653 78.3929L161.183 78.8855L160.367 79.214V79.5424L159.388 79.7067L159.061 80.3636L157.918 80.8563L157.428 81.5132H157.102L156.939 82.0059H156.612L156.449 82.3343H155.959L155.796 82.827L154.653 83.3197L154 83.8124L153.347 83.9766L152.53 84.7977H151.877L151.551 85.4547L150.898 85.6189L149.265 86.6043L148.775 86.9327L147.796 87.0969V87.4254H147.143L146.979 87.9181L146.163 88.0823V88.4108L144.857 89.0677L143.224 89.7246L141.428 90.71L138.979 91.5311L138.816 91.8596L136.857 92.5165L136.53 92.3522L136.041 92.5165H134.734L135.387 92.0238L139.143 90.3815L141.428 89.2319L144.367 87.9181L147.143 86.44L149.755 84.7977L152.53 83.1555L154.326 82.0059L158.245 79.3782L164.122 75.1083L166.408 73.1376L168.204 71.4953L169.347 70.1814L171.143 68.0465L173.102 65.4188L174.735 63.2839L176.694 60.492L178.326 58.0286L179.633 55.4009L181.428 51.131L183.061 46.5326L184.041 42.5911L184.694 38.4854L185.02 34.2155V33.0659L185.51 31.9163Z" fill="#805338"/>
<path d="M133.265 93.0092H133.591V93.3376L132.775 93.5018V93.9945H133.102V94.6514L131.959 95.1441H130.816V95.4726L128.857 96.4579L127.877 96.6222V96.9506L126.734 97.1149L126.897 97.6075V97.936L127.061 98.5929H126.734L126.897 100.892L126.408 101.221H125.918L126.081 102.206H129.673L130.326 102.042L130.816 102.37L132.938 102.042L134.244 102.699L134.408 103.191H134.081L133.918 103.684L132.938 103.848L130.326 103.191L129.346 103.027H124.775L121.999 103.52L118.571 104.669L115.469 106.312L113.51 107.625L111.877 108.939L111.387 109.432L110.571 108.775H107.142L106.326 108.939L106.652 108.118L107.795 105.49L108.938 103.52L110.244 102.042L112.693 100.399L115.795 99.2498L126.081 95.801L130.653 93.9945L133.265 93.0092Z" fill="#8E5C41"/>
<path d="M7.54999 153.609H59.4686L67.3054 153.774L67.7952 154.266L65.1829 154.43L62.7339 154.266L55.387 154.102H6.24387L2.81528 154.266V154.595L2.48875 154.759L2.32548 156.237L2.16221 156.401L1.99895 158.7V180.378L2.16221 181.857V186.783L2.32548 187.933V190.561L2.16221 192.86L2.32548 195.159V219.136L2.48875 222.421V224.884L2.65201 226.855L2.48875 232.603L2.32548 235.559L2.16221 237.858L1.99895 240.979V241.636L1.50915 241.471L1.34588 241.143L1.18262 233.917V200.907L1.34588 164.12L1.50915 157.715L1.67242 154.595L1.99895 153.938L2.81528 153.774L7.54999 153.609Z" fill="#066984"/>
<path d="M84.1217 128.318L89.183 128.482L105.673 128.811H166.898L170.979 129.139L172.449 129.632L172.612 129.96V134.395L172.122 142.77H171.959L171.796 141.292L171.632 138.008V134.066L171.306 132.095L171.143 131.439H170.816L170.489 130.946L169.02 130.289L166.408 129.796H164.449L162.816 129.632L157.265 129.468H109.101L98.979 129.304L93.2646 129.139H90.9789L87.5503 129.304L85.1013 129.468L83.4687 130.617H83.1421L83.3054 136.858L83.7952 141.456L84.1217 143.263L84.9381 150.325L85.2646 153.938V157.715L84.7748 158.043V156.237L83.4687 142.77L82.8156 135.873L82.6523 132.917V129.304L83.1421 128.811L84.1217 128.318Z" fill="#026787"/>
<path d="M1.0194 112.716H1.18267L1.34594 120.764V240.157H1.18267L0.856137 233.917L0.692871 215.031V133.409L0.856137 126.347L1.0194 112.716Z" fill="#FEFEFE"/>
<path d="M180.122 54.9082L180.286 55.4009L179.796 56.7147V57.7001L179.306 57.8643L179.143 58.6854L178.816 59.1781H178.163V60.3277H177.837L177.51 60.8204L177.184 60.6562V61.3131L176.367 61.8058L175.714 62.7911V63.9407H175.388L175.224 64.4334H174.735L173.265 66.4042H172.939L172.612 67.0611L172.122 67.5538L171.469 68.7034L170.979 68.8676L170.816 69.5245L170 70.1814L169.51 71.331L169.347 71.6595L168.204 72.3164L168.041 73.1375L167.714 73.466L167.388 74.1229L166.245 74.2871L165.918 74.7798H165.592L165.755 75.7652L165.265 76.2578H164.612V76.5863L163.306 77.7359L162.653 78.3928L161.183 78.8855L160.367 79.2139V79.5424L159.388 79.7066L159.061 80.3635L157.918 80.8562L157.428 81.5131H157.102L156.939 82.0058H156.612L156.449 82.3343H155.959L155.796 82.827L154.653 83.3196L154 83.8123L153.347 83.9766L152.53 84.7977H151.877L151.551 85.4546L150.898 85.6188L149.265 86.6042L148.775 86.9327L147.796 87.0969V87.4254H147.143L146.979 87.918L146.163 88.0823V88.4107L144.857 89.0676L143.224 89.7245L141.428 90.7099L138.979 91.531L138.816 91.8595L136.857 92.5164L136.53 92.3522L136.041 92.5164H134.734L135.387 92.0237L139.143 90.3815L141.428 89.2319L144.367 87.918L147.143 86.44L149.755 84.7977L152.53 83.1554L154.326 82.0058L158.245 79.3782L164.122 75.1082L166.408 73.1375L168.204 71.4952L169.347 70.1814L171.143 68.0464L173.102 65.4188L174.735 63.2838L176.694 60.492L178.326 58.0285L179.633 55.4009L180.122 54.9082Z" fill="#8E5F42"/>
<path d="M185.51 31.9163L186.163 32.0805L187.796 33.2301L189.592 34.7082L191.877 37.0074L193.02 38.3212L194 39.635L193.673 40.4562L192.857 40.292L192.53 39.9635L191.388 39.4708L190.735 38.9781L188.775 39.1424L187.632 39.4708L186.816 40.4562L186.326 41.4415L185.51 41.77L185.183 42.0985L184.367 45.383L183.877 46.5326L183.551 47.6822L183.224 48.996L182.898 49.6529L182.735 50.9668L182.245 52.1164H181.918L181.592 52.7733L180.612 54.0871L180.122 54.9082L179.959 54.5798L181.428 51.131L183.061 46.5326L184.041 42.5911L184.694 38.4854L185.02 34.2155V33.0659L185.51 31.9163Z" fill="#8E5D41"/>
<path d="M123.469 223.242L124.449 223.899L125.102 225.377L126.245 227.019L126.571 227.676L126.898 229.483V231.453L126.571 232.931L125.918 234.409L125.102 236.38L124.612 239.829L124.449 240.486L124.775 241.471L123.469 241.635L123.143 241.307L122.979 239.501V223.735L123.469 223.242Z" fill="#1C5B59"/>
<path d="M113.673 100.399L115.306 100.728L116.122 101.056L116.612 101.713V101.877L118.081 102.206L117.918 102.863L117.265 103.356H116.612L116.448 104.012L115.632 104.998L114.979 105.162L114.652 105.655H114.326L114.163 106.312L115.306 105.983V106.476L113.51 107.625L111.877 108.939L111.387 109.432L110.571 108.775H107.142L106.326 108.939L107.142 108.118L107.632 107.79L107.959 106.969L108.612 106.312L108.448 105.49L109.101 105.162H109.591V104.834L110.244 104.669L110.571 104.012L111.55 102.863L112.367 102.534L112.53 101.549L112.857 100.728L113.673 100.399Z" fill="#805438"/>
<path d="M84.9382 157.879L86.081 158.208V158.536L86.5708 158.372L86.8974 159.029L87.877 159.193L89.5096 159.85L89.9994 160.835L90.8158 161.492L91.9586 161.821L93.428 162.478L94.2443 163.299V163.791H93.7545L93.5913 164.613H93.2647L93.428 166.091H93.1015L92.7749 165.598L92.1219 165.269V164.448L92.2852 163.956L91.6321 164.284L91.1423 165.269L92.1219 165.434L92.7749 166.091L92.2852 166.419H90.4892L88.8566 165.762L88.6933 166.091L88.3668 165.762L89.3464 165.434L89.8362 165.598L89.9994 165.105H90.4892V164.777H90.8158L90.979 163.627L90.1627 163.463L89.8362 162.97V162.478L90.979 162.313L90.6525 161.985H89.3464L88.53 161L88.2035 161.164L87.0606 161.492L86.8974 162.313L85.5912 162.149L84.7749 161.492L83.3055 161.821L82.8157 162.313L81.8361 162.478L81.6729 162.806L80.8565 163.135L80.3667 163.299L79.8769 163.791L79.3871 163.956L78.8973 163.299L78.5708 163.463L78.8973 162.806L80.3667 161.328L82.4892 159.686L84.2851 158.372L84.9382 157.879Z" fill="#084E4E"/>
<path d="M199.225 212.567L199.388 213.06L198.245 216.344L196.939 218.972L194.653 222.421L192.857 224.72L191.061 226.855L189.918 228.169L187.959 230.304L186.49 231.782L184.694 233.26L182.408 235.066L180.286 236.38L177.837 237.694L174.735 239.008L170.979 240.322L170.326 240.157V239.829H170.816L170.979 239.501L171.796 239.008L174.408 238.022L176.367 237.201L177.837 236.38L179.306 235.723L181.102 234.574L182.735 233.096L184.041 232.11H184.367L184.694 231.453L185.51 230.796L186.326 229.975L186.98 229.811L187.306 229.154H187.633L187.796 228.661H188.122L188.286 228.169H188.612L188.775 227.512H189.102L189.265 227.019H189.592L189.918 226.362L191.061 225.213L191.551 224.227L192.694 222.914L192.857 222.585H193.184L193.347 222.092H193.673L194 221.435L194.98 220.286L195.306 220.45L194 222.421L194.163 222.257L195.469 220.45L196.612 218.479L197.429 217.33L198.898 213.388L199.225 212.567Z" fill="#0F504C"/>
<path d="M174.408 128.482L174.571 129.139L173.918 132.752L173.265 138.336V138.829L173.592 138.172L174.898 138.336L175.877 138.665L177.673 138.336L178.49 138.008L179.796 138.172L180.122 139.157L178.326 140.471L175.714 141.785L172.939 143.263L172.122 144.084L171.633 146.876L170.816 155.252L169.837 167.076H169.673V163.463L170.163 156.401L170.816 151.146L171.306 145.891L171.959 143.591L172.286 142.113L173.265 133.245L173.755 130.617L174.082 129.304L174.408 128.482Z" fill="#8C593F"/>
<path d="M68.1217 111.074H68.285L68.4482 151.146L68.6115 167.733V234.245L68.4482 240.322L68.1217 241.307L67.7952 241.471L68.1217 239.501L68.285 220.943V170.361L67.9584 157.387V151.639L68.1217 111.074Z" fill="#AFBC63"/>
<path d="M174.245 129.796H174.408V131.11H174.734L175.224 132.424L175.877 134.723V135.38V135.708H176.367L176.857 136.201L178 136.694L179.959 136.201L181.102 136.365V137.515L181.428 138.172L180.449 138.993H179.959L179.796 138.172H178.49L177.673 138.5L175.714 138.829L174.408 138.336H173.592L173.265 139.321H173.102L173.265 136.53L173.918 131.603L174.245 129.796Z" fill="#805338"/>
<path d="M126.408 97.936L127.061 98.1002V98.5929H126.734L126.898 100.892L126.408 101.221H125.918L126.081 102.206H129.673L130.326 102.042L130.816 102.37L132.938 102.042L134.245 102.699L134.408 103.191H134.081L133.918 103.684L132.938 103.848L130.326 103.191L129.347 103.027H124.775L121.183 103.355L120.367 103.684L119.877 103.52L120.204 102.863H121.183L122.489 102.37H122.816V102.042L123.632 101.713L122.979 101.221L123.306 100.235L122.979 100.071L123.143 99.9067L124.285 99.7425L124.775 99.5783L124.938 98.4287L125.918 98.2644L126.408 97.936Z" fill="#805438"/>
<path d="M135.877 2.35529L138.163 2.51951L143.714 3.50488L148.938 4.81871L154.816 6.78944L160.041 8.59595L165.265 10.7309L168.694 12.5374L171.143 14.1797L173.265 15.9862L174.571 17.4643L176.041 19.7635L177.184 22.5553L177.673 24.5261L177.837 25.6757V27.6464H177.673L177.184 24.5261L176.367 22.0627L174.571 18.6139L173.428 17.1358L171.959 15.4935L169.51 13.687L165.918 11.7163L162.653 10.2382L158.408 8.59595L152.857 6.62521L147.469 4.98293L142.898 3.83334L135.877 2.51951V2.35529Z" fill="#FEFEFE"/>
<path d="M67.7952 151.639H67.9584V154.43L67.3054 153.938L59.142 153.774H2.97852V153.609L7.06017 153.445H20.448L63.0604 153.281L66.8156 153.445L67.7952 153.609V151.639Z" fill="#044C40"/>
<path d="M195.143 42.0984L195.796 42.2627L195.959 42.5911L196.612 42.9196L199.388 47.6822L201.184 51.2952L202.98 55.7294L204.122 59.5066L205.592 65.4188V65.7473H205.265L204.939 64.9261L205.102 64.5977H204.776V64.105H204.449L203.796 60.8204L203.959 60.492H203.633L203.469 59.3424L202.98 57.0432L202.327 55.5651L202 55.0725V54.5798L201.347 54.2513L201.184 53.266L200.694 52.4448L200.204 51.9521L199.551 50.3099L199.224 49.9814L198.571 48.1749L198.082 47.1895L197.429 46.5326L196.775 45.5472L196.612 44.7261H196.286L196.122 44.0692H195.796L195.143 42.7554V42.0984Z" fill="#8D5E41"/>
<path d="M169.51 167.24L169.673 167.897L168.204 168.061L161.347 168.39L155.632 169.047L152.694 169.539L148.938 170.525L145.836 171.51L143.714 172.496L141.428 173.481L138.816 175.123L136.204 177.258L135.877 177.094L137.51 175.616L139.469 174.138L141.918 172.66L144.857 171.346H145.347V171.017L147.469 170.196H147.959L148.122 169.868L148.938 169.539L150.734 169.047L153.02 168.554L157.592 168.061L165.428 167.569L168.53 167.404L169.51 167.24Z" fill="#026888"/>
<path d="M144.367 75.9294H145.183L144.693 76.2579L140.775 77.2433L136.857 77.9002L133.428 78.2286H115.959L102.408 78.0644H87.7136V77.9002L91.632 77.736H133.428L139.306 77.079L144.367 75.9294Z" fill="#C0CA84"/>
<path d="M127.714 187.769V188.261L126.245 191.382L125.102 194.831L124.122 199.429L123.469 204.848L123.143 210.761V213.717L122.979 221.271L122.653 221.928L121.183 222.092L121.51 221.928L121.673 220.614L122.163 218.315L122.326 215.195L122.489 209.775L122.979 203.699L123.306 201.564L123.796 198.279L124.612 194.666L126.408 190.068L127.551 187.933L127.714 187.769Z" fill="#026888"/>
<path d="M21.9175 153.609H59.4687L67.3055 153.774L67.7953 154.266L65.183 154.43L62.7341 154.266L55.3871 154.102H43.7952L11.4685 153.938V153.774L21.9175 153.609Z" fill="#026888"/>
<path d="M205.592 66.0757H205.755L206.571 71.1668L207.061 76.2579L207.224 80.3636V82.6628L206.898 89.0677L206.408 93.1734H206.245V90.7099L206.082 90.053L206.245 89.7246V87.4254L206.408 86.6042V85.1262L206.571 84.4693V82.4985L206.408 81.6774H206.735L206.571 79.5424L206.245 78.3928L206.082 77.5717V72.9733L205.755 71.6595V68.7034L205.592 68.2107V66.0757Z" fill="#987351"/>
<path d="M71.5503 91.6953H71.8768L71.387 93.1734L70.2442 96.2937L69.4278 98.9213L68.938 101.549L68.6115 105.49L68.4482 110.582L68.285 111.074L68.1217 149.175H67.9584L67.7952 141.785V129.139L67.9584 108.447L68.1217 107.297L68.4482 102.534L68.7748 99.7425L69.7544 96.1295L70.5707 93.666L70.8972 92.8449H71.2238L71.5503 91.6953Z" fill="#165840"/>
<path d="M90.979 161.656H91.7953L93.4279 162.478L94.2443 163.299V163.791H93.7545L93.5912 164.613H93.2647L93.4279 166.091H93.1014L92.7749 165.598L92.1218 165.269V164.448L92.2851 163.956L91.632 164.284L91.1422 165.269L92.1218 165.434L92.7749 166.091L92.2851 166.419H90.4892L88.8565 165.762L88.6932 166.091L88.3667 165.762L89.3463 165.434L89.8361 165.598L89.9994 165.105H90.4892V164.777H90.8157L90.979 163.627L90.1626 163.463L89.8361 162.97V162.478L90.979 162.313V161.656Z" fill="#044C4E"/>
<path d="M180.122 54.9082L180.286 55.4009L179.796 56.7147V57.7001L179.306 57.8643L179.143 58.6854L178.816 59.1781H178.163V60.3277H177.837L177.51 60.8204L177.184 60.6562V61.3131L176.367 61.8058L175.714 62.7911V63.9407H175.388L175.224 64.4334H174.735L173.265 66.4042H172.939L172.612 67.0611L172.122 67.5538L171.469 68.7034L170.979 68.8676L170.816 69.5245L169.51 70.5099L168.367 71.4952L168.694 70.8383L170.326 69.0318L172.122 66.7326L174.245 63.9407L176.204 61.1489L177.837 58.8497L179.306 56.222L179.796 55.0724L180.122 54.9082Z" fill="#926746"/>
<path d="M82.6523 129.304L82.9789 129.632L83.1421 131.11L83.3054 136.858L83.7952 141.456L84.1217 143.263L84.9381 150.325L85.2646 153.938V157.715L84.7748 158.043V156.237L83.4687 142.77L82.8156 135.873L82.6523 132.917V129.304Z" fill="#B8C375"/>
<path d="M113.02 100.235H113.346L113.183 100.728L112.693 101.221V102.206L112.204 102.863H111.55L111.224 103.52L110.244 104.669L109.591 104.834V105.162L108.938 105.49H108.448V106.147L108.775 106.312L107.959 107.133L107.632 107.954L106.652 108.775L106.326 108.611L106.979 107.297L108.285 104.505L109.591 102.699L110.897 101.549L113.02 100.235Z" fill="#94694A"/>
<path d="M96.3668 166.091L96.5301 166.419L97.0199 166.255L98.6525 166.912L98.9791 167.076V167.404L99.6321 167.733L100.285 168.554L101.102 169.375L101.265 170.361L100.775 171.182V173.317H100.612L100.285 171.674L99.6321 170.196L98.6525 168.882L97.3464 167.897L95.3872 167.076V166.419L96.3668 166.091Z" fill="#13534E"/>
<path d="M187.959 169.047L189.265 169.211L191.714 170.032L194.326 171.182L196.449 172.66L198.408 174.63L199.551 176.273L200.857 178.9L201.51 181.528L201.673 182.678L201.837 185.469V195.323H201.673L201.51 186.126L201.02 180.871L200.204 178.736L198.898 176.273L197.592 174.466L196.449 173.317L194.163 171.674L191.714 170.525L189.102 169.539L187.959 169.211V169.047Z" fill="#8E8C49"/>
<path d="M74.4892 196.637H74.6525L74.979 198.279L75.3055 201.071V203.37L75.6321 205.013L75.9586 205.67L76.1219 206.162L75.9586 206.491L76.2851 207.312H75.7953L75.4688 206.655L76.4484 209.283L77.1015 210.761L76.9382 211.253L75.4688 207.969L74.6525 205.013L74.4892 204.027L74.3259 196.801L74.4892 196.637Z" fill="#286353"/>
<path d="M3.795 118.464L3.95827 118.793L2.81541 120.599H3.14194L4.44807 122.242L4.61133 122.734L4.7746 125.855L4.44807 126.512L3.95827 123.227L3.46847 121.749L2.16234 121.913L1.83581 124.869L1.67254 133.738H1.50928V122.57L1.83581 121.092L2.65214 119.943L3.3052 119.286L3.795 118.464Z" fill="#044C40"/>
<path d="M199.225 212.567L199.388 213.06L198.245 216.344L196.939 218.972L194.653 222.421L192.857 224.72L191.061 226.855L189.918 228.169L187.959 230.304L187.796 229.811L189.429 228.169L190.571 226.527H190.898L191.224 225.87L192.857 223.899L193.837 222.585H194.163L194.49 221.928L195.796 219.793L197.429 217.33L198.898 213.388L199.225 212.567Z" fill="#9C815D"/>
<path d="M110.244 172.66L110.571 173.317L111.224 178.079V179.557L110.897 179.886L108.612 180.214L102.897 180.543L101.591 181.035L100.938 181.2V180.05L106.489 179.722L109.918 179.393L110.734 179.065L110.408 174.466L110.244 172.66Z" fill="#026888"/>
<path d="M129.836 102.042L130.489 102.206L130.816 102.37L132.938 102.042L134.245 102.699L134.408 103.191H134.081L133.918 103.684L132.938 103.848L130.326 103.191L129.347 103.027H123.632V102.863L126.571 102.534L129.183 102.37L129.836 102.042Z" fill="#8C6944"/>
<path d="M171.796 143.92L172.122 144.084L171.633 146.876L170.816 155.252L169.837 167.076H169.673V163.463L170.163 156.401L170.816 151.146L171.306 145.891L171.796 143.92Z" fill="#B8C375"/>
<path d="M201.02 109.925L201.184 110.582L200.694 112.06L199.877 113.866L199.551 115.508L198.081 118.464L197.428 118.136L197.265 117.315L197.428 116.822H197.755L197.918 115.837L198.898 114.359L199.714 112.388L200.204 111.238L200.694 110.253H201.02V109.925Z" fill="#815638"/>
<path d="M144.367 75.9294H145.183L144.694 76.2579L140.775 77.2433L136.857 77.9002L133.428 78.2286H124.285V77.9002L133.428 77.736L139.306 77.079L144.367 75.9294Z" fill="#B1BD64"/>
<path d="M88.3667 157.058H93.2647L97.5096 157.715L100.612 159.029L102.408 160.178L103.877 161.328L105.02 162.313L106.489 164.12V164.613L104.53 162.478L103.387 161.328L101.755 160.178L100.448 159.357L97.9994 158.372L96.0402 157.879L93.5912 157.551H88.8565L86.4075 157.879H85.2646V157.551L86.734 157.387L88.3667 157.058Z" fill="#026888"/>
<path d="M174.408 128.482L174.571 129.139L173.918 132.752L173.265 138.336L172.775 143.263L171.959 143.92L172.449 140.471L173.428 131.931L174.081 129.304L174.408 128.482Z" fill="#638A42"/>
<path d="M68.4482 221.6H68.6115V234.245L68.4482 240.322L68.1217 241.307L67.7952 241.471L68.1217 239.501L68.285 221.764L68.4482 221.6Z" fill="#C6CF8F"/>
<path d="M82.6523 129.304L82.9789 129.632L83.1421 131.11L83.3054 136.858L83.7952 141.456L84.1217 143.263V145.069L83.9585 145.891H83.7952L82.9789 138.008L82.6523 132.917V129.304Z" fill="#BFC982"/>
<path d="M74.6525 177.915H74.8158L74.9791 181.364V188.59L74.6525 196.144H74.4893V178.079L74.6525 177.915Z" fill="#054C4F"/>
<path d="M75.9586 167.076L76.1219 167.733L75.9586 168.554L76.2851 169.047L76.1219 169.868L75.3055 171.839L74.979 172.824H74.8157L74.6525 175.287L74.3259 175.123V171.346L74.979 169.211L75.9586 167.076Z" fill="#2B6555"/>
<path d="M180.122 54.9082L180.285 55.4009L179.796 56.7147V57.7001L179.306 57.8643L179.143 58.6854L178.816 59.1781H178.163V60.3277H177.836L177.51 60.8204L177.183 60.6562V61.3131L176.041 61.6416L176.367 60.9846L178 58.5212L179.306 56.222L179.796 55.0724L180.122 54.9082Z" fill="#916544"/>
<path d="M71.5505 91.6953H71.877L71.3872 93.1734L70.2443 96.2937L69.428 98.9213L68.9382 101.549L68.6117 105.49L68.4484 110.582H68.2852V104.177L68.775 99.7425L69.7546 96.1295L70.5709 93.666L70.8974 92.8449H71.2239L71.5505 91.6953Z" fill="#91A861"/>
<path d="M202.163 55.7294L202.49 56.2221L203.796 60.6562L204.939 65.4188V65.7473H204.612L204.286 64.9261L204.449 64.5977H204.123V64.105H203.796L203.143 60.8204L203.306 60.492H202.98L202.816 59.3424L202.327 57.0432L202.163 56.879V55.7294Z" fill="#906543"/>
<path d="M194 123.391L194.326 123.884L194.163 124.541L192.53 126.676L192.041 127.169H191.388L191.224 127.497V126.512L192.53 125.198L193.02 123.884L193.673 123.556L194 123.391Z" fill="#805737"/>
<path d="M113.02 107.461L113.51 107.625L111.877 108.939L111.387 109.432L110.571 108.775L107.142 108.611L107.469 108.282L109.428 107.954L112.204 107.79L113.02 107.461Z" fill="#658C43"/>
<path d="M138.489 105.326L139.143 105.49L139.796 106.147L139.632 106.969L140.938 108.447L141.918 109.268L142.571 111.074L142.408 111.731L141.102 109.103L139.469 107.461L137.836 106.312L138 105.819L138.489 105.326Z" fill="#877043"/>
<path d="M113.673 100.399L115.143 100.728L114.979 101.877L114 102.37L112.694 102.042L112.53 101.221L113.183 100.564L113.673 100.399Z" fill="#754427"/>
<path d="M4.93773 144.084L5.26426 144.413V145.398L5.101 146.055L5.42753 146.547L5.5908 148.026L5.42753 148.518V149.832L4.93773 150.982L4.77447 151.31L4.28467 151.146L4.6112 149.996L4.77447 145.234L4.93773 144.084Z" fill="#044C40"/>
<path d="M199.224 212.567L199.388 213.06L198.245 216.344L196.939 218.972L194.653 222.421H194.163L195.306 220.614L196.939 217.987L197.592 216.837L198.735 213.881L199.224 212.567Z" fill="#7F723C"/>
<path d="M68.1217 235.723H68.285V239.501L67.7952 241.471L66.8156 241.8L64.3666 241.964H60.4482V241.8L65.6728 241.471L67.4687 241.307L67.9585 238.844L68.1217 235.723Z" fill="#5C854C"/>
<path d="M169.836 54.9082L170 55.2367L168.367 57.7001L166.408 60.3277L164.122 62.7911L162.816 64.105L162.49 63.9407L164.775 61.6416L165.918 60.3277L168.204 57.3716L169.836 54.9082Z" fill="#FEFEFE"/>
<path d="M82.6523 129.304L82.9789 129.632L83.1421 131.11L83.3054 137.843L82.9789 137.351L82.6523 132.917V129.304Z" fill="#B3BF6E"/>
<path d="M88.8565 165.762L90.4892 166.255L92.6117 166.419V166.583L89.8361 166.748L88.3667 167.076H87.5504L87.2239 166.255L87.8769 166.091H88.2035L88.8565 165.762Z" fill="#286445"/>
<path d="M170.326 158.536H170.49L170.326 161.328L169.837 167.076H169.673V163.463L170 158.865L170.326 158.536Z" fill="#B5C16E"/>
<path d="M187.959 169.047L189.265 169.211L191.714 170.032L194.326 171.182L195.632 172.003V172.167H194.816L193.183 171.182L189.102 169.539L187.959 169.211V169.047Z" fill="#887744"/>
<path d="M171.796 67.5538L171.959 68.0465L171.306 68.8676H170.979L170.816 69.5245L169.51 70.5099L168.367 71.4952L168.694 70.8383L170.326 69.0318L171.143 68.0465L171.796 67.5538Z" fill="#98724F"/>
<path d="M47.7136 19.7634L48.0401 19.9277L45.9177 21.5699L44.285 22.8838L42.3258 24.526L41.9993 24.3618L43.6319 22.8838L45.4279 21.4057L47.7136 19.7634Z" fill="#F6F8EF"/>
<path d="M173.918 168.061H177.02L177.347 168.39L177.02 168.554L174.408 168.718L174.081 168.554L172.612 168.39V168.226L173.918 168.061Z" fill="#044C4A"/>
<path d="M78.734 80.692L79.2238 80.8562L78.8973 81.5132H78.5708L78.2442 82.1701L76.9381 83.6481L76.6116 82.9912L78.734 80.692Z" fill="#557457"/>
<path d="M82.6523 217.001L83.4687 217.166L85.9177 218.644L87.3871 219.3L86.8973 219.465L84.6115 218.479L84.1217 218.315V217.987L83.1421 217.658L82.6523 217.001Z" fill="#054C4F"/>
<path d="M206.408 88.0823H206.571L206.735 88.9034V90.8742L206.408 93.1733H206.245V90.7099L206.082 90.053L206.245 89.7246V88.2465L206.408 88.0823Z" fill="#8B6640"/>
<path d="M81.3464 78.3928H83.3056V78.7213L81.1832 79.5424L80.8566 79.3782L80.6934 78.5571L81.3464 78.3928Z" fill="#226251"/>
<path d="M195.143 172.167L195.959 172.331L197.265 173.481L198.408 174.63L198.245 175.287L196.775 173.645L195.143 172.331V172.167Z" fill="#805533"/>
<path d="M79.2239 214.045H79.5504L80.6933 215.359L81.5096 215.687L81.9994 216.18L81.8361 216.673L81.1831 216.344L79.8769 215.195L79.2239 214.045Z" fill="#054C4F"/>
<path d="M81.183 127.333L82.4891 127.99L82.1626 128.647L80.6932 128.482L80.2034 128.154L80.6932 127.825L81.183 127.333Z" fill="#1D5950"/>
<path d="M71.5504 91.6953H71.877L71.3872 93.1734L70.5709 95.3083L70.2443 95.4726L70.0811 94.9799L70.8974 92.8449H71.2239L71.5504 91.6953Z" fill="#617351"/>
<path d="M134.898 77.5717H136.857V77.9002L133.428 78.2286H132.285V78.0644L133.428 77.7359L134.898 77.5717Z" fill="#C0CA83"/>
<path d="M76.4483 83.6481L76.7748 83.8124L74.8156 86.6042L74.1625 87.5896L73.9993 86.9327H74.3258V86.44H74.6523L74.8156 85.6189L75.4687 85.2904L75.6319 84.6335L76.4483 83.6481Z" fill="#AE9976"/>
<path d="M79.0605 122.406H79.2237L79.387 126.019L79.8768 127.497L80.2033 128.154L79.387 127.661L79.0605 126.84L78.8972 124.048L79.0605 122.406Z" fill="#F6F7EE"/>
<path d="M77.428 164.613L77.7546 165.105L77.9178 165.926H77.5913V166.255L76.9382 166.419L76.2852 167.076V166.583L77.428 164.613Z" fill="#2B654F"/>
<path d="M102.244 220.122L102.897 220.45L104.04 221.271L106.489 222.092L105.836 222.257L103.714 221.6L102.734 220.943L102.244 220.122Z" fill="#CBD49E"/>
<path d="M116.938 112.881L117.428 113.045L117.102 113.373L117.428 113.702L116.612 114.687L115.795 114.523L115.959 113.866L116.448 113.373H116.775L116.938 112.881Z" fill="#044C4E"/>
<path d="M205.592 66.0757H205.755L206.408 70.0172V70.6741H206.082L205.592 68.2107V66.0757Z" fill="#937546"/>
<path d="M204.122 63.4481H204.449V64.105H204.775V64.5977H205.102L205.265 65.7473H205.592V67.2254L205.265 66.7327L204.449 64.5977L204.122 63.9408V63.4481Z" fill="#815338"/>
<path d="M170.49 155.252H170.653V157.222L170.49 158.536L170.163 158.7V156.401L170.49 155.252Z" fill="#B3BF69"/>
<path d="M205.918 69.6888H206.082V70.6741H206.408V72.4807H205.918L205.755 71.1668L205.918 69.6888Z" fill="#84543A"/>
<path d="M196.122 219.465L196.286 219.957L194.653 222.421H194.163L195.306 220.614L196.122 219.465Z" fill="#7B4E2D"/>
<path d="M202.163 55.7294L202.49 56.2221L203.306 59.0139L203.143 59.3424L202.653 58.5212L202.327 57.0432L202.163 56.879V55.7294Z" fill="#97764B"/>
<path d="M185.184 232.274L185.673 232.439L183.551 234.245H183.224L183.388 233.588L184.367 232.767L185.184 232.274Z" fill="#656B4A"/>
<path d="M185.51 31.9163L186.163 32.0805L186.653 32.5732H186.163L186 33.2301L185.347 33.0659L185.184 32.409L185.51 31.9163Z" fill="#B4BC6D"/>
<path d="M205.102 98.5929L205.265 99.0856L204.612 102.042L204.122 101.877L204.286 101.056L204.612 100.071L205.102 98.5929Z" fill="#89673F"/>
<path d="M189.918 227.512L190.082 228.005L187.959 230.304L187.796 229.811L189.429 228.169L189.918 227.512Z" fill="#8B6B40"/>
<path d="M98.3259 168.39L98.979 168.718L100.122 169.704L100.285 171.182L99.9586 170.853L99.1423 169.375L98.3259 168.39Z" fill="#7B7051"/>
<path d="M88.3667 165.926L88.8565 166.912L87.5504 167.076L87.2239 166.255L87.8769 166.091H88.2035L88.3667 165.926Z" fill="#1A5A4D"/>
<path d="M170.326 158.536H170.49L170.326 161.328H170V158.865L170.326 158.536Z" fill="#C1CB85"/>
<path d="M68.285 237.201H68.4482V240.322L68.1217 241.307L67.7952 241.471L68.1217 239.501L68.285 237.201Z" fill="#FEFEFE"/>
<path d="M73.1831 88.7392L73.3463 89.0677L72.0402 91.6953H71.877V90.7099L72.3668 89.8888H72.6933L73.0198 88.9034L73.1831 88.7392Z" fill="#767650"/>
<path d="M181.428 235.231L181.918 235.395L179.959 236.544H179.633L179.959 235.888L181.428 235.231Z" fill="#666C49"/>
<path d="M114.979 114.195L115.306 114.359L114.326 115.18H112.857L113.02 114.851L114.816 114.359L114.979 114.195Z" fill="#B5C591"/>
<path d="M94.8975 111.895L95.224 112.06L93.9179 113.538L93.1016 114.851V114.359L93.9179 112.881L94.8975 111.895Z" fill="#8D9253"/>
<path d="M206.245 78.7213H206.571L206.735 80.0351V81.6774L206.408 81.0205L206.245 80.3636L206.082 79.0498L206.245 78.7213Z" fill="#805338"/>
<path d="M187.306 230.304L187.796 230.468L186.49 231.782L185.673 232.275L186 231.618L187.306 230.304Z" fill="#8D6E43"/>
<path d="M117.755 110.91V111.403L116.612 112.716L116.448 113.045H116.122L115.959 113.538L115.795 113.209L116.775 111.895L117.755 110.91Z" fill="#829F55"/>
<path d="M89.9994 163.791L90.1626 164.448L89.8361 164.613V164.941H89.5096V165.269H88.3667L88.6932 165.105V164.777L89.6728 164.613L89.9994 163.791Z" fill="#054C4F"/>
<path d="M206.735 86.7685H206.898V89.0677L206.571 88.9035V88.0823H206.245V87.7539H206.571V86.9327L206.735 86.7685Z" fill="#97754B"/>
<path d="M176.367 61.3131L176.694 61.4773L175.714 62.7912L174.898 63.2838L175.224 62.6269L175.877 61.6416L176.367 61.3131Z" fill="#987450"/>
<path d="M70.081 95.4725H70.4076L69.9178 97.1148L69.5912 97.936L69.428 97.279L70.081 95.4725Z" fill="#8C8D57"/>
<path d="M196.775 173.481L197.428 173.645L198.408 174.63L198.245 175.287L196.775 173.645V173.481Z" fill="#7E5130"/>
<path d="M81.9994 78.5571H83.1423L82.979 78.8855L81.6729 79.3782L81.1831 79.214L81.5096 78.7213L81.9994 78.5571Z" fill="#6AADB8"/>
<path d="M135.061 77.5717H136.857V77.9002L134.898 78.0644L135.061 77.5717Z" fill="#BDC77D"/>
<path d="M191.061 226.198L191.224 226.691L190.245 227.84L190.082 227.183L190.898 226.362L191.061 226.198Z" fill="#94764E"/>
<path d="M136.857 114.03L137.837 114.523V114.851L138.653 115.18L138.326 115.508L137.02 114.523L136.857 114.03Z" fill="#044C4D"/>
</svg>
